<?xml version="1.0" encoding="UTF-8"?>
<svg id="_Слой_2" data-name="Слой 2" xmlns="http://www.w3.org/2000/svg" viewBox="0 0 100 100">
  <defs>
    <style>
      .cls-1 {
        fill: #ff6100;
      }

      .cls-1, .cls-2, .cls-3, .cls-4 {
        stroke-width: 0px;
      }

      .cls-2 {
        fill: #ffea85;
      }

      .cls-3 {
        fill: #ffd401;
      }

      .cls-4 {
        fill: gray;
      }
    </style>
  </defs>
  <g id="_Слой_1-2" data-name="Слой 1">
    <rect class="cls-2" x="0" y="0" width="100" height="100"/>
    <polygon class="cls-4" points="79 69 79 67 77 67 77 65 75 65 75 63 73 63 73 61 71 61 71 59 69 59 69 57 67 57 67 55 65 55 65 53 63 53 63 51 61 51 61 49 59 49 59 47 57 47 57 45 55 45 55 43 53 43 53 41 51 41 51 39 49 39 49 41 47 41 47 43 45 43 45 45 43 45 43 47 41 47 41 49 39 49 39 51 37 51 37 53 35 53 35 55 33 55 33 57 31 57 31 59 29 59 29 61 27 61 27 63 25 63 25 65 23 65 23 67 21 67 21 69 19 69 19 71 81 71 81 69 79 69"/>
    <polygon class="cls-1" points="100 90 100 100 0 100 0 100 10 90 100 90"/>
    <polygon class="cls-1" points="100 0 100 100 90 100 90 10 100 0 100 0"/>
    <polygon class="cls-3" points="0 100 0 0 10 0 10 90 0 100 0 100"/>
    <polygon class="cls-3" points="0 10 0 0 100 0 100 0 90 10 0 10"/>
  </g>
</svg>