<?xml version="1.0" encoding="UTF-8"?> <svg xmlns="http://www.w3.org/2000/svg" id="_Слой_2" data-name="Слой 2" viewBox="0 0 208.4 114.96"><defs><style> .cls-1 { fill: #000; } .cls-1, .cls-2 { stroke-width: 0px; } .cls-2 { fill: #f95050; } </style></defs><g id="_Слой_1-2" data-name="Слой 1"><g><g><path class="cls-1" d="M52.35,27.2c-1.91-4.49-3.9-8.35-5.98-11.56-2.08-3.21-4.19-5.8-6.35-7.76-2.16-1.96-4.41-3.41-6.73-4.33-2.33-.93-4.76-1.39-7.28-1.39v34.24c1.23-.07,2.72-.57,4.46-1.5,1.74-.93,3.54-2.53,5.39-4.82,1.85-2.28,3.34-4.89,4.46-7.81h.08v29.86h-.08c-1.57-4.14-3.66-7.51-6.27-10.11-2.61-2.6-5.29-3.98-8.04-4.12v37.88c3.87-.07,7.32-1.05,10.35-2.94,3.03-1.89,5.85-4.64,8.46-8.24,2.61-3.6,5.12-8.22,7.53-13.86h.08v26.75H.76v-1.71h6.73V6.23L0,.45h52.44v26.75h-.08Z"></path><path class="cls-2" d="M92.75,79.63c-9.71,0-16.69-2.73-20.96-8.19-4.26-5.46-6.4-14-6.4-25.63V6.12L57.91.45h33.5l-7.49,5.67v41.2c0,6.71.45,12.15,1.35,16.32.9,4.17,2.31,7.33,4.25,9.47,1.94,2.14,4.61,3.21,8.04,3.21,4.82,0,8.36-2.35,10.61-7.06,2.24-4.71,3.17-12.16,2.78-22.37l-1.43-40.77L99.48.45h23.9l-7.49,5.67-1.51,44.19c-.23,6.99-1,12.56-2.31,16.69-1.32,4.14-3.44,7.28-6.36,9.42-2.92,2.14-7.24,3.21-12.96,3.21Z"></path></g><g><path class="cls-1" d="M207.32,89.76v-3.5h-3.5v3.5h1.08v7.68h-65.23v-7.68h1.08v-3.5h-3.5v3.5h-1.08v11.19h4.58v6.87h63.08v-6.87h4.58v-11.19h-1.08ZM200.31,104.32h-56.07v-3.37h56.07v3.37Z"></path><path class="cls-1" d="M144.24,84.91h56.07v1.35h3.5v-3.5h-3.37v-1.35h-12.53v-3.5h-3.5v-2.8h-3.5v-22.27h2.29v-3.5h1.75v-9.84h1.75v-9.97h1.75v-9.97h2.83v-11.46h-3.5v7.95h-17.12v3.5h14.29v9.97h-1.75v9.97h-1.75v9.84h-18.6v-9.97h-1.75v-9.97h-1.75v-9.84h7.82v-3.5h-10.38v-7.99h1.62v-2.8h3.5v-1.75h20.89v1.75h3.5v2.83h3.5v-3.5h-3.5V1.75h-3.5V0h-20.89v1.75h-3.5v2.8h-3.5v3.47h-1.62v11.52h2.56v9.84h1.75v9.97h1.75v9.97h1.75v3.5h2.56v22.27h-3.5v2.8h-3.5v3.5h-12.4v1.35h-3.5v3.5h3.5v-1.35ZM160.15,78.61h3.5v-2.86h3.5v-22.91h10.24v19.41h-6.6v3.5h10.11v2.86h3.5v2.8h-24.26v-2.8Z"></path></g><g><path class="cls-2" d="M9.83,108.26c-2.39,0-4.43-.5-6.12-1.51-1.7-1.01-2.73-2.68-3.11-5l2.4-.4c.22,1.27.66,2.27,1.32,3.01.66.73,1.48,1.25,2.44,1.57.96.31,1.99.47,3.07.47,1.63,0,2.94-.29,3.93-.88.99-.59,1.48-1.4,1.48-2.43s-.47-1.79-1.4-2.2c-.94-.41-2.18-.73-3.72-.97l-1.87-.29c-1.25-.19-2.37-.49-3.38-.88-1-.4-1.8-.93-2.38-1.6-.58-.67-.88-1.51-.88-2.52,0-1.51.67-2.7,2.01-3.56,1.34-.86,3.13-1.3,5.35-1.3s4.06.45,5.43,1.35c1.37.9,2.23,2.2,2.58,3.91l-2.28.43c-.27-1.39-.92-2.38-1.93-2.95-1.02-.58-2.29-.86-3.8-.86s-2.69.25-3.58.76c-.9.5-1.34,1.25-1.34,2.23s.41,1.66,1.22,2.11c.81.44,1.93.77,3.34.99l1.87.29c1.36.19,2.58.47,3.66.85s1.95.89,2.58,1.57c.64.67.96,1.56.96,2.66,0,1.66-.71,2.93-2.12,3.83-1.41.9-3.32,1.35-5.74,1.35Z"></path><path class="cls-1" d="M31.19,107.76c-1.06,0-1.85-.24-2.38-.72-.53-.48-.79-1.15-.79-2.02v-12.82h-6.35v-1.94h6.35v-6.55h2.44v6.55h6.92v1.94h-6.92v12.53c0,.72.41,1.08,1.22,1.08h4.64v1.94h-5.13Z"></path><path class="cls-1" d="M49.46,108.26c-1.38,0-2.64-.21-3.76-.63-1.13-.42-2.01-1.04-2.67-1.85-.65-.82-.98-1.8-.98-2.95s.33-2.15.98-2.92c.65-.77,1.53-1.34,2.65-1.73,1.11-.38,2.35-.58,3.7-.58h7.24v-1.4c0-1.42-.46-2.52-1.38-3.31-.92-.79-2.27-1.19-4.03-1.19s-3.11.38-4.13,1.13c-1.02.76-1.7,1.77-2.05,3.04l-2.36-.61c.33-1.03.84-1.96,1.55-2.79.71-.83,1.64-1.49,2.81-1.98,1.17-.49,2.56-.74,4.19-.74,2.5,0,4.43.58,5.8,1.73,1.37,1.15,2.05,2.76,2.05,4.82v8.5c0,.72.38,1.08,1.14,1.08h1.91v1.87h-2.6c-.84,0-1.51-.22-1.99-.67-.49-.44-.73-1.05-.73-1.82v-.25h-.41c-.35.53-.81,1.04-1.36,1.55-.56.5-1.28.91-2.18,1.22s-2.02.47-3.38.47ZM49.62,106.32c2.09,0,3.78-.56,5.07-1.67,1.29-1.12,1.93-2.69,1.93-4.73v-.43h-7.2c-1.41,0-2.58.27-3.52.81-.94.54-1.4,1.37-1.4,2.5s.48,2,1.44,2.61c.96.61,2.19.92,3.68.92Z"></path><path class="cls-1" d="M67.32,107.76v-17.5h2.36v2.3h.49c.41-.65,1.06-1.25,1.95-1.82s2.17-.85,3.82-.85,2.9.32,3.89.97c.99.65,1.7,1.43,2.14,2.34h.49c.46-.91,1.18-1.69,2.16-2.34.98-.65,2.35-.97,4.11-.97,1.36,0,2.54.25,3.54.74,1,.49,1.79,1.18,2.36,2.05.57.88.85,1.9.85,3.08v11.99h-2.44v-11.77c0-1.25-.43-2.25-1.28-3.01s-2.06-1.13-3.6-1.13-2.89.45-3.95,1.35c-1.06.9-1.59,2.21-1.59,3.94v10.62h-2.44v-11.77c0-1.25-.43-2.25-1.28-3.01s-2.05-1.13-3.6-1.13-2.89.45-3.95,1.35c-1.06.9-1.59,2.21-1.59,3.94v10.62h-2.44Z"></path><path class="cls-1" d="M102.97,114.96v-24.7h2.36v3.2h.49c.57-.96,1.46-1.82,2.67-2.57,1.21-.76,2.9-1.13,5.07-1.13,1.76,0,3.36.37,4.8,1.1,1.44.73,2.58,1.77,3.44,3.11.85,1.34,1.28,2.95,1.28,4.82v.43c0,1.85-.42,3.45-1.26,4.81-.84,1.36-1.98,2.4-3.42,3.13-1.44.73-3.05,1.1-4.84,1.1-1.44,0-2.67-.17-3.68-.52-1.02-.35-1.84-.8-2.48-1.35-.64-.55-1.13-1.12-1.49-1.69h-.49v10.26h-2.44ZM112.98,106.32c2.25,0,4.08-.63,5.47-1.91,1.4-1.27,2.1-3.02,2.1-5.26v-.29c0-2.23-.7-3.98-2.1-5.26-1.4-1.27-3.22-1.91-5.47-1.91s-4.04.64-5.45,1.91c-1.41,1.27-2.12,3.02-2.12,5.26v.29c0,2.23.71,3.98,2.12,5.26s3.23,1.91,5.45,1.91Z"></path></g></g></g></svg> 